<svg width="13" height="12" viewBox="0 0 13 12" fill="none" xmlns="http://www.w3.org/2000/svg">
<g clip-path="url(#clip0_31_475)">
<path d="M3.8375 5.83594H6.07578C7.92031 5.83594 9.41328 7.33125 9.41328 9.17344V10.125C9.41328 10.9031 8.78281 11.5359 8.00234 11.5359H1.90859C1.13047 11.5336 0.5 10.9031 0.5 10.125V9.17344C0.5 7.32891 1.99531 5.83594 3.8375 5.83594Z" fill="white"/>
<path d="M4.95771 5.21487C6.26896 5.21487 7.33193 4.15189 7.33193 2.84065C7.33193 1.5294 6.26896 0.466431 4.95771 0.466431C3.64647 0.466431 2.5835 1.5294 2.5835 2.84065C2.5835 4.15189 3.64647 5.21487 4.95771 5.21487Z" fill="white"/>
<path d="M11.825 3.94692H11.0562V3.17817C11.0562 2.80552 10.7539 2.50317 10.3812 2.50317C10.0085 2.50317 9.7062 2.80552 9.7062 3.17817V3.94692H8.93745C8.56479 3.94692 8.26245 4.24927 8.26245 4.62192C8.26245 4.99458 8.56479 5.29692 8.93745 5.29692H9.7062V6.06567C9.7062 6.43833 10.0085 6.74067 10.3812 6.74067C10.7539 6.74067 11.0562 6.43833 11.0562 6.06567V5.29692H11.825C12.1976 5.29692 12.5 4.99458 12.5 4.62192C12.5 4.24927 12.1976 3.94692 11.825 3.94692Z" fill="white"/>
</g>
<defs>
<clipPath id="clip0_31_475">
<rect width="12" height="12" fill="white" transform="translate(0.5)"/>
</clipPath>
</defs>
</svg>
